<?xml version="1.0" encoding="utf-8" standalone="no"?>
<!DOCTYPE svg PUBLIC "-//W3C//DTD SVG 1.1//EN"
  "http://www.w3.org/Graphics/SVG/1.1/DTD/svg11.dtd">
<svg xmlns:xlink="http://www.w3.org/1999/xlink" width="400.932813pt" height="269.39625pt" viewBox="0 0 400.932813 269.39625" xmlns="http://www.w3.org/2000/svg" version="1.1">
 <metadata>
  <rdf:RDF xmlns:dc="http://purl.org/dc/elements/1.1/" xmlns:cc="http://creativecommons.org/ns#" xmlns:rdf="http://www.w3.org/1999/02/22-rdf-syntax-ns#">
   <cc:Work>
    <dc:type rdf:resource="http://purl.org/dc/dcmitype/StillImage"/>
    <dc:date>2023-03-05T20:51:20.438219</dc:date>
    <dc:format>image/svg+xml</dc:format>
    <dc:creator>
     <cc:Agent>
      <dc:title>Matplotlib v3.5.3, https://matplotlib.org/</dc:title>
     </cc:Agent>
    </dc:creator>
   </cc:Work>
  </rdf:RDF>
 </metadata>
 <defs>
  <style type="text/css">*{stroke-linejoin: round; stroke-linecap: butt}</style>
 </defs>
 <g id="figure_1">
  <g id="patch_1">
   <path d="M 0 269.39625 
L 400.932813 269.39625 
L 400.932813 0 
L 0 0 
L 0 269.39625 
z
" style="fill: none"/>
  </g>
  <g id="axes_1">
   <g id="patch_2">
    <path d="M 47.38125 228.24 
L 382.18125 228.24 
L 382.18125 10.8 
L 47.38125 10.8 
z
" style="fill: #ffffff"/>
   </g>
   <g id="matplotlib.axis_1">
    <g id="xtick_1">
     <g id="line2d_1">
      <path d="M 47.38125 228.24 
L 47.38125 10.8 
" clip-path="url(#p9a20edc19f)" style="fill: none; stroke: #b0b0b0; stroke-width: 0.8; stroke-linecap: square"/>
     </g>
     <g id="line2d_2">
      <defs>
       <path id="m757345b272" d="M 0 0 
L 0 3.5 
" style="stroke: #000000; stroke-width: 0.8"/>
      </defs>
      <g>
       <use xlink:href="#m757345b272" x="47.38125" y="228.24" style="stroke: #000000; stroke-width: 0.8"/>
      </g>
     </g>
     <g id="text_1">
      <!-- 0.0 -->
      <g transform="translate(39.429688 242.838437)scale(0.1 -0.1)">
       <defs>
        <path id="DejaVuSans-30" d="M 2034 4250 
Q 1547 4250 1301 3770 
Q 1056 3291 1056 2328 
Q 1056 1369 1301 889 
Q 1547 409 2034 409 
Q 2525 409 2770 889 
Q 3016 1369 3016 2328 
Q 3016 3291 2770 3770 
Q 2525 4250 2034 4250 
z
M 2034 4750 
Q 2819 4750 3233 4129 
Q 3647 3509 3647 2328 
Q 3647 1150 3233 529 
Q 2819 -91 2034 -91 
Q 1250 -91 836 529 
Q 422 1150 422 2328 
Q 422 3509 836 4129 
Q 1250 4750 2034 4750 
z
" transform="scale(0.015625)"/>
        <path id="DejaVuSans-2e" d="M 684 794 
L 1344 794 
L 1344 0 
L 684 0 
L 684 794 
z
" transform="scale(0.015625)"/>
       </defs>
       <use xlink:href="#DejaVuSans-30"/>
       <use xlink:href="#DejaVuSans-2e" x="63.623047"/>
       <use xlink:href="#DejaVuSans-30" x="95.410156"/>
      </g>
     </g>
    </g>
    <g id="xtick_2">
     <g id="line2d_3">
      <path d="M 89.23125 228.24 
L 89.23125 10.8 
" clip-path="url(#p9a20edc19f)" style="fill: none; stroke: #b0b0b0; stroke-width: 0.8; stroke-linecap: square"/>
     </g>
     <g id="line2d_4">
      <g>
       <use xlink:href="#m757345b272" x="89.23125" y="228.24" style="stroke: #000000; stroke-width: 0.8"/>
      </g>
     </g>
     <g id="text_2">
      <!-- 0.5 -->
      <g transform="translate(81.279688 242.838437)scale(0.1 -0.1)">
       <defs>
        <path id="DejaVuSans-35" d="M 691 4666 
L 3169 4666 
L 3169 4134 
L 1269 4134 
L 1269 2991 
Q 1406 3038 1543 3061 
Q 1681 3084 1819 3084 
Q 2600 3084 3056 2656 
Q 3513 2228 3513 1497 
Q 3513 744 3044 326 
Q 2575 -91 1722 -91 
Q 1428 -91 1123 -41 
Q 819 9 494 109 
L 494 744 
Q 775 591 1075 516 
Q 1375 441 1709 441 
Q 2250 441 2565 725 
Q 2881 1009 2881 1497 
Q 2881 1984 2565 2268 
Q 2250 2553 1709 2553 
Q 1456 2553 1204 2497 
Q 953 2441 691 2322 
L 691 4666 
z
" transform="scale(0.015625)"/>
       </defs>
       <use xlink:href="#DejaVuSans-30"/>
       <use xlink:href="#DejaVuSans-2e" x="63.623047"/>
       <use xlink:href="#DejaVuSans-35" x="95.410156"/>
      </g>
     </g>
    </g>
    <g id="xtick_3">
     <g id="line2d_5">
      <path d="M 131.08125 228.24 
L 131.08125 10.8 
" clip-path="url(#p9a20edc19f)" style="fill: none; stroke: #b0b0b0; stroke-width: 0.8; stroke-linecap: square"/>
     </g>
     <g id="line2d_6">
      <g>
       <use xlink:href="#m757345b272" x="131.08125" y="228.24" style="stroke: #000000; stroke-width: 0.8"/>
      </g>
     </g>
     <g id="text_3">
      <!-- 1.0 -->
      <g transform="translate(123.129688 242.838437)scale(0.1 -0.1)">
       <defs>
        <path id="DejaVuSans-31" d="M 794 531 
L 1825 531 
L 1825 4091 
L 703 3866 
L 703 4441 
L 1819 4666 
L 2450 4666 
L 2450 531 
L 3481 531 
L 3481 0 
L 794 0 
L 794 531 
z
" transform="scale(0.015625)"/>
       </defs>
       <use xlink:href="#DejaVuSans-31"/>
       <use xlink:href="#DejaVuSans-2e" x="63.623047"/>
       <use xlink:href="#DejaVuSans-30" x="95.410156"/>
      </g>
     </g>
    </g>
    <g id="xtick_4">
     <g id="line2d_7">
      <path d="M 172.93125 228.24 
L 172.93125 10.8 
" clip-path="url(#p9a20edc19f)" style="fill: none; stroke: #b0b0b0; stroke-width: 0.8; stroke-linecap: square"/>
     </g>
     <g id="line2d_8">
      <g>
       <use xlink:href="#m757345b272" x="172.93125" y="228.24" style="stroke: #000000; stroke-width: 0.8"/>
      </g>
     </g>
     <g id="text_4">
      <!-- 1.5 -->
      <g transform="translate(164.979688 242.838437)scale(0.1 -0.1)">
       <use xlink:href="#DejaVuSans-31"/>
       <use xlink:href="#DejaVuSans-2e" x="63.623047"/>
       <use xlink:href="#DejaVuSans-35" x="95.410156"/>
      </g>
     </g>
    </g>
    <g id="xtick_5">
     <g id="line2d_9">
      <path d="M 214.78125 228.24 
L 214.78125 10.8 
" clip-path="url(#p9a20edc19f)" style="fill: none; stroke: #b0b0b0; stroke-width: 0.8; stroke-linecap: square"/>
     </g>
     <g id="line2d_10">
      <g>
       <use xlink:href="#m757345b272" x="214.78125" y="228.24" style="stroke: #000000; stroke-width: 0.8"/>
      </g>
     </g>
     <g id="text_5">
      <!-- 2.0 -->
      <g transform="translate(206.829688 242.838437)scale(0.1 -0.1)">
       <defs>
        <path id="DejaVuSans-32" d="M 1228 531 
L 3431 531 
L 3431 0 
L 469 0 
L 469 531 
Q 828 903 1448 1529 
Q 2069 2156 2228 2338 
Q 2531 2678 2651 2914 
Q 2772 3150 2772 3378 
Q 2772 3750 2511 3984 
Q 2250 4219 1831 4219 
Q 1534 4219 1204 4116 
Q 875 4013 500 3803 
L 500 4441 
Q 881 4594 1212 4672 
Q 1544 4750 1819 4750 
Q 2544 4750 2975 4387 
Q 3406 4025 3406 3419 
Q 3406 3131 3298 2873 
Q 3191 2616 2906 2266 
Q 2828 2175 2409 1742 
Q 1991 1309 1228 531 
z
" transform="scale(0.015625)"/>
       </defs>
       <use xlink:href="#DejaVuSans-32"/>
       <use xlink:href="#DejaVuSans-2e" x="63.623047"/>
       <use xlink:href="#DejaVuSans-30" x="95.410156"/>
      </g>
     </g>
    </g>
    <g id="xtick_6">
     <g id="line2d_11">
      <path d="M 256.63125 228.24 
L 256.63125 10.8 
" clip-path="url(#p9a20edc19f)" style="fill: none; stroke: #b0b0b0; stroke-width: 0.8; stroke-linecap: square"/>
     </g>
     <g id="line2d_12">
      <g>
       <use xlink:href="#m757345b272" x="256.63125" y="228.24" style="stroke: #000000; stroke-width: 0.8"/>
      </g>
     </g>
     <g id="text_6">
      <!-- 2.5 -->
      <g transform="translate(248.679688 242.838437)scale(0.1 -0.1)">
       <use xlink:href="#DejaVuSans-32"/>
       <use xlink:href="#DejaVuSans-2e" x="63.623047"/>
       <use xlink:href="#DejaVuSans-35" x="95.410156"/>
      </g>
     </g>
    </g>
    <g id="xtick_7">
     <g id="line2d_13">
      <path d="M 298.48125 228.24 
L 298.48125 10.8 
" clip-path="url(#p9a20edc19f)" style="fill: none; stroke: #b0b0b0; stroke-width: 0.8; stroke-linecap: square"/>
     </g>
     <g id="line2d_14">
      <g>
       <use xlink:href="#m757345b272" x="298.48125" y="228.24" style="stroke: #000000; stroke-width: 0.8"/>
      </g>
     </g>
     <g id="text_7">
      <!-- 3.0 -->
      <g transform="translate(290.529688 242.838437)scale(0.1 -0.1)">
       <defs>
        <path id="DejaVuSans-33" d="M 2597 2516 
Q 3050 2419 3304 2112 
Q 3559 1806 3559 1356 
Q 3559 666 3084 287 
Q 2609 -91 1734 -91 
Q 1441 -91 1130 -33 
Q 819 25 488 141 
L 488 750 
Q 750 597 1062 519 
Q 1375 441 1716 441 
Q 2309 441 2620 675 
Q 2931 909 2931 1356 
Q 2931 1769 2642 2001 
Q 2353 2234 1838 2234 
L 1294 2234 
L 1294 2753 
L 1863 2753 
Q 2328 2753 2575 2939 
Q 2822 3125 2822 3475 
Q 2822 3834 2567 4026 
Q 2313 4219 1838 4219 
Q 1578 4219 1281 4162 
Q 984 4106 628 3988 
L 628 4550 
Q 988 4650 1302 4700 
Q 1616 4750 1894 4750 
Q 2613 4750 3031 4423 
Q 3450 4097 3450 3541 
Q 3450 3153 3228 2886 
Q 3006 2619 2597 2516 
z
" transform="scale(0.015625)"/>
       </defs>
       <use xlink:href="#DejaVuSans-33"/>
       <use xlink:href="#DejaVuSans-2e" x="63.623047"/>
       <use xlink:href="#DejaVuSans-30" x="95.410156"/>
      </g>
     </g>
    </g>
    <g id="xtick_8">
     <g id="line2d_15">
      <path d="M 340.33125 228.24 
L 340.33125 10.8 
" clip-path="url(#p9a20edc19f)" style="fill: none; stroke: #b0b0b0; stroke-width: 0.8; stroke-linecap: square"/>
     </g>
     <g id="line2d_16">
      <g>
       <use xlink:href="#m757345b272" x="340.33125" y="228.24" style="stroke: #000000; stroke-width: 0.8"/>
      </g>
     </g>
     <g id="text_8">
      <!-- 3.5 -->
      <g transform="translate(332.379687 242.838437)scale(0.1 -0.1)">
       <use xlink:href="#DejaVuSans-33"/>
       <use xlink:href="#DejaVuSans-2e" x="63.623047"/>
       <use xlink:href="#DejaVuSans-35" x="95.410156"/>
      </g>
     </g>
    </g>
    <g id="xtick_9">
     <g id="line2d_17">
      <path d="M 382.18125 228.24 
L 382.18125 10.8 
" clip-path="url(#p9a20edc19f)" style="fill: none; stroke: #b0b0b0; stroke-width: 0.8; stroke-linecap: square"/>
     </g>
     <g id="line2d_18">
      <g>
       <use xlink:href="#m757345b272" x="382.18125" y="228.24" style="stroke: #000000; stroke-width: 0.8"/>
      </g>
     </g>
     <g id="text_9">
      <!-- 4.0 -->
      <g transform="translate(374.229688 242.838437)scale(0.1 -0.1)">
       <defs>
        <path id="DejaVuSans-34" d="M 2419 4116 
L 825 1625 
L 2419 1625 
L 2419 4116 
z
M 2253 4666 
L 3047 4666 
L 3047 1625 
L 3713 1625 
L 3713 1100 
L 3047 1100 
L 3047 0 
L 2419 0 
L 2419 1100 
L 313 1100 
L 313 1709 
L 2253 4666 
z
" transform="scale(0.015625)"/>
       </defs>
       <use xlink:href="#DejaVuSans-34"/>
       <use xlink:href="#DejaVuSans-2e" x="63.623047"/>
       <use xlink:href="#DejaVuSans-30" x="95.410156"/>
      </g>
     </g>
    </g>
    <g id="xtick_10">
     <g id="line2d_19">
      <defs>
       <path id="m60ba916560" d="M 0 0 
L 0 2 
" style="stroke: #000000; stroke-width: 0.6"/>
      </defs>
      <g>
       <use xlink:href="#m60ba916560" x="55.75125" y="228.24" style="stroke: #000000; stroke-width: 0.6"/>
      </g>
     </g>
    </g>
    <g id="xtick_11">
     <g id="line2d_20">
      <g>
       <use xlink:href="#m60ba916560" x="64.12125" y="228.24" style="stroke: #000000; stroke-width: 0.6"/>
      </g>
     </g>
    </g>
    <g id="xtick_12">
     <g id="line2d_21">
      <g>
       <use xlink:href="#m60ba916560" x="72.49125" y="228.24" style="stroke: #000000; stroke-width: 0.6"/>
      </g>
     </g>
    </g>
    <g id="xtick_13">
     <g id="line2d_22">
      <g>
       <use xlink:href="#m60ba916560" x="80.86125" y="228.24" style="stroke: #000000; stroke-width: 0.6"/>
      </g>
     </g>
    </g>
    <g id="xtick_14">
     <g id="line2d_23">
      <g>
       <use xlink:href="#m60ba916560" x="97.60125" y="228.24" style="stroke: #000000; stroke-width: 0.6"/>
      </g>
     </g>
    </g>
    <g id="xtick_15">
     <g id="line2d_24">
      <g>
       <use xlink:href="#m60ba916560" x="105.97125" y="228.24" style="stroke: #000000; stroke-width: 0.6"/>
      </g>
     </g>
    </g>
    <g id="xtick_16">
     <g id="line2d_25">
      <g>
       <use xlink:href="#m60ba916560" x="114.34125" y="228.24" style="stroke: #000000; stroke-width: 0.6"/>
      </g>
     </g>
    </g>
    <g id="xtick_17">
     <g id="line2d_26">
      <g>
       <use xlink:href="#m60ba916560" x="122.71125" y="228.24" style="stroke: #000000; stroke-width: 0.6"/>
      </g>
     </g>
    </g>
    <g id="xtick_18">
     <g id="line2d_27">
      <g>
       <use xlink:href="#m60ba916560" x="139.45125" y="228.24" style="stroke: #000000; stroke-width: 0.6"/>
      </g>
     </g>
    </g>
    <g id="xtick_19">
     <g id="line2d_28">
      <g>
       <use xlink:href="#m60ba916560" x="147.82125" y="228.24" style="stroke: #000000; stroke-width: 0.6"/>
      </g>
     </g>
    </g>
    <g id="xtick_20">
     <g id="line2d_29">
      <g>
       <use xlink:href="#m60ba916560" x="156.19125" y="228.24" style="stroke: #000000; stroke-width: 0.6"/>
      </g>
     </g>
    </g>
    <g id="xtick_21">
     <g id="line2d_30">
      <g>
       <use xlink:href="#m60ba916560" x="164.56125" y="228.24" style="stroke: #000000; stroke-width: 0.6"/>
      </g>
     </g>
    </g>
    <g id="xtick_22">
     <g id="line2d_31">
      <g>
       <use xlink:href="#m60ba916560" x="181.30125" y="228.24" style="stroke: #000000; stroke-width: 0.6"/>
      </g>
     </g>
    </g>
    <g id="xtick_23">
     <g id="line2d_32">
      <g>
       <use xlink:href="#m60ba916560" x="189.67125" y="228.24" style="stroke: #000000; stroke-width: 0.6"/>
      </g>
     </g>
    </g>
    <g id="xtick_24">
     <g id="line2d_33">
      <g>
       <use xlink:href="#m60ba916560" x="198.04125" y="228.24" style="stroke: #000000; stroke-width: 0.6"/>
      </g>
     </g>
    </g>
    <g id="xtick_25">
     <g id="line2d_34">
      <g>
       <use xlink:href="#m60ba916560" x="206.41125" y="228.24" style="stroke: #000000; stroke-width: 0.6"/>
      </g>
     </g>
    </g>
    <g id="xtick_26">
     <g id="line2d_35">
      <g>
       <use xlink:href="#m60ba916560" x="223.15125" y="228.24" style="stroke: #000000; stroke-width: 0.6"/>
      </g>
     </g>
    </g>
    <g id="xtick_27">
     <g id="line2d_36">
      <g>
       <use xlink:href="#m60ba916560" x="231.52125" y="228.24" style="stroke: #000000; stroke-width: 0.6"/>
      </g>
     </g>
    </g>
    <g id="xtick_28">
     <g id="line2d_37">
      <g>
       <use xlink:href="#m60ba916560" x="239.89125" y="228.24" style="stroke: #000000; stroke-width: 0.6"/>
      </g>
     </g>
    </g>
    <g id="xtick_29">
     <g id="line2d_38">
      <g>
       <use xlink:href="#m60ba916560" x="248.26125" y="228.24" style="stroke: #000000; stroke-width: 0.6"/>
      </g>
     </g>
    </g>
    <g id="xtick_30">
     <g id="line2d_39">
      <g>
       <use xlink:href="#m60ba916560" x="265.00125" y="228.24" style="stroke: #000000; stroke-width: 0.6"/>
      </g>
     </g>
    </g>
    <g id="xtick_31">
     <g id="line2d_40">
      <g>
       <use xlink:href="#m60ba916560" x="273.37125" y="228.24" style="stroke: #000000; stroke-width: 0.6"/>
      </g>
     </g>
    </g>
    <g id="xtick_32">
     <g id="line2d_41">
      <g>
       <use xlink:href="#m60ba916560" x="281.74125" y="228.24" style="stroke: #000000; stroke-width: 0.6"/>
      </g>
     </g>
    </g>
    <g id="xtick_33">
     <g id="line2d_42">
      <g>
       <use xlink:href="#m60ba916560" x="290.11125" y="228.24" style="stroke: #000000; stroke-width: 0.6"/>
      </g>
     </g>
    </g>
    <g id="xtick_34">
     <g id="line2d_43">
      <g>
       <use xlink:href="#m60ba916560" x="306.85125" y="228.24" style="stroke: #000000; stroke-width: 0.6"/>
      </g>
     </g>
    </g>
    <g id="xtick_35">
     <g id="line2d_44">
      <g>
       <use xlink:href="#m60ba916560" x="315.22125" y="228.24" style="stroke: #000000; stroke-width: 0.6"/>
      </g>
     </g>
    </g>
    <g id="xtick_36">
     <g id="line2d_45">
      <g>
       <use xlink:href="#m60ba916560" x="323.59125" y="228.24" style="stroke: #000000; stroke-width: 0.6"/>
      </g>
     </g>
    </g>
    <g id="xtick_37">
     <g id="line2d_46">
      <g>
       <use xlink:href="#m60ba916560" x="331.96125" y="228.24" style="stroke: #000000; stroke-width: 0.6"/>
      </g>
     </g>
    </g>
    <g id="xtick_38">
     <g id="line2d_47">
      <g>
       <use xlink:href="#m60ba916560" x="348.70125" y="228.24" style="stroke: #000000; stroke-width: 0.6"/>
      </g>
     </g>
    </g>
    <g id="xtick_39">
     <g id="line2d_48">
      <g>
       <use xlink:href="#m60ba916560" x="357.07125" y="228.24" style="stroke: #000000; stroke-width: 0.6"/>
      </g>
     </g>
    </g>
    <g id="xtick_40">
     <g id="line2d_49">
      <g>
       <use xlink:href="#m60ba916560" x="365.44125" y="228.24" style="stroke: #000000; stroke-width: 0.6"/>
      </g>
     </g>
    </g>
    <g id="xtick_41">
     <g id="line2d_50">
      <g>
       <use xlink:href="#m60ba916560" x="373.81125" y="228.24" style="stroke: #000000; stroke-width: 0.6"/>
      </g>
     </g>
    </g>
    <g id="text_10">
     <!-- x -->
     <g transform="translate(211.821875 256.516562)scale(0.1 -0.1)">
      <defs>
       <path id="DejaVuSans-78" d="M 3513 3500 
L 2247 1797 
L 3578 0 
L 2900 0 
L 1881 1375 
L 863 0 
L 184 0 
L 1544 1831 
L 300 3500 
L 978 3500 
L 1906 2253 
L 2834 3500 
L 3513 3500 
z
" transform="scale(0.015625)"/>
      </defs>
      <use xlink:href="#DejaVuSans-78"/>
     </g>
    </g>
   </g>
   <g id="matplotlib.axis_2">
    <g id="ytick_1">
     <g id="line2d_51">
      <path d="M 47.38125 228.24 
L 382.18125 228.24 
" clip-path="url(#p9a20edc19f)" style="fill: none; stroke: #b0b0b0; stroke-width: 0.8; stroke-linecap: square"/>
     </g>
     <g id="line2d_52">
      <defs>
       <path id="mce312f19a7" d="M 0 0 
L -3.5 0 
" style="stroke: #000000; stroke-width: 0.8"/>
      </defs>
      <g>
       <use xlink:href="#mce312f19a7" x="47.38125" y="228.24" style="stroke: #000000; stroke-width: 0.8"/>
      </g>
     </g>
     <g id="text_11">
      <!-- 0.0 -->
      <g transform="translate(24.478125 232.039219)scale(0.1 -0.1)">
       <use xlink:href="#DejaVuSans-30"/>
       <use xlink:href="#DejaVuSans-2e" x="63.623047"/>
       <use xlink:href="#DejaVuSans-30" x="95.410156"/>
      </g>
     </g>
    </g>
    <g id="ytick_2">
     <g id="line2d_53">
      <path d="M 47.38125 199.248 
L 382.18125 199.248 
" clip-path="url(#p9a20edc19f)" style="fill: none; stroke: #b0b0b0; stroke-width: 0.8; stroke-linecap: square"/>
     </g>
     <g id="line2d_54">
      <g>
       <use xlink:href="#mce312f19a7" x="47.38125" y="199.248" style="stroke: #000000; stroke-width: 0.8"/>
      </g>
     </g>
     <g id="text_12">
      <!-- 0.2 -->
      <g transform="translate(24.478125 203.047219)scale(0.1 -0.1)">
       <use xlink:href="#DejaVuSans-30"/>
       <use xlink:href="#DejaVuSans-2e" x="63.623047"/>
       <use xlink:href="#DejaVuSans-32" x="95.410156"/>
      </g>
     </g>
    </g>
    <g id="ytick_3">
     <g id="line2d_55">
      <path d="M 47.38125 170.256 
L 382.18125 170.256 
" clip-path="url(#p9a20edc19f)" style="fill: none; stroke: #b0b0b0; stroke-width: 0.8; stroke-linecap: square"/>
     </g>
     <g id="line2d_56">
      <g>
       <use xlink:href="#mce312f19a7" x="47.38125" y="170.256" style="stroke: #000000; stroke-width: 0.8"/>
      </g>
     </g>
     <g id="text_13">
      <!-- 0.4 -->
      <g transform="translate(24.478125 174.055219)scale(0.1 -0.1)">
       <use xlink:href="#DejaVuSans-30"/>
       <use xlink:href="#DejaVuSans-2e" x="63.623047"/>
       <use xlink:href="#DejaVuSans-34" x="95.410156"/>
      </g>
     </g>
    </g>
    <g id="ytick_4">
     <g id="line2d_57">
      <path d="M 47.38125 141.264 
L 382.18125 141.264 
" clip-path="url(#p9a20edc19f)" style="fill: none; stroke: #b0b0b0; stroke-width: 0.8; stroke-linecap: square"/>
     </g>
     <g id="line2d_58">
      <g>
       <use xlink:href="#mce312f19a7" x="47.38125" y="141.264" style="stroke: #000000; stroke-width: 0.8"/>
      </g>
     </g>
     <g id="text_14">
      <!-- 0.6 -->
      <g transform="translate(24.478125 145.063219)scale(0.1 -0.1)">
       <defs>
        <path id="DejaVuSans-36" d="M 2113 2584 
Q 1688 2584 1439 2293 
Q 1191 2003 1191 1497 
Q 1191 994 1439 701 
Q 1688 409 2113 409 
Q 2538 409 2786 701 
Q 3034 994 3034 1497 
Q 3034 2003 2786 2293 
Q 2538 2584 2113 2584 
z
M 3366 4563 
L 3366 3988 
Q 3128 4100 2886 4159 
Q 2644 4219 2406 4219 
Q 1781 4219 1451 3797 
Q 1122 3375 1075 2522 
Q 1259 2794 1537 2939 
Q 1816 3084 2150 3084 
Q 2853 3084 3261 2657 
Q 3669 2231 3669 1497 
Q 3669 778 3244 343 
Q 2819 -91 2113 -91 
Q 1303 -91 875 529 
Q 447 1150 447 2328 
Q 447 3434 972 4092 
Q 1497 4750 2381 4750 
Q 2619 4750 2861 4703 
Q 3103 4656 3366 4563 
z
" transform="scale(0.015625)"/>
       </defs>
       <use xlink:href="#DejaVuSans-30"/>
       <use xlink:href="#DejaVuSans-2e" x="63.623047"/>
       <use xlink:href="#DejaVuSans-36" x="95.410156"/>
      </g>
     </g>
    </g>
    <g id="ytick_5">
     <g id="line2d_59">
      <path d="M 47.38125 112.272 
L 382.18125 112.272 
" clip-path="url(#p9a20edc19f)" style="fill: none; stroke: #b0b0b0; stroke-width: 0.8; stroke-linecap: square"/>
     </g>
     <g id="line2d_60">
      <g>
       <use xlink:href="#mce312f19a7" x="47.38125" y="112.272" style="stroke: #000000; stroke-width: 0.8"/>
      </g>
     </g>
     <g id="text_15">
      <!-- 0.8 -->
      <g transform="translate(24.478125 116.071219)scale(0.1 -0.1)">
       <defs>
        <path id="DejaVuSans-38" d="M 2034 2216 
Q 1584 2216 1326 1975 
Q 1069 1734 1069 1313 
Q 1069 891 1326 650 
Q 1584 409 2034 409 
Q 2484 409 2743 651 
Q 3003 894 3003 1313 
Q 3003 1734 2745 1975 
Q 2488 2216 2034 2216 
z
M 1403 2484 
Q 997 2584 770 2862 
Q 544 3141 544 3541 
Q 544 4100 942 4425 
Q 1341 4750 2034 4750 
Q 2731 4750 3128 4425 
Q 3525 4100 3525 3541 
Q 3525 3141 3298 2862 
Q 3072 2584 2669 2484 
Q 3125 2378 3379 2068 
Q 3634 1759 3634 1313 
Q 3634 634 3220 271 
Q 2806 -91 2034 -91 
Q 1263 -91 848 271 
Q 434 634 434 1313 
Q 434 1759 690 2068 
Q 947 2378 1403 2484 
z
M 1172 3481 
Q 1172 3119 1398 2916 
Q 1625 2713 2034 2713 
Q 2441 2713 2670 2916 
Q 2900 3119 2900 3481 
Q 2900 3844 2670 4047 
Q 2441 4250 2034 4250 
Q 1625 4250 1398 4047 
Q 1172 3844 1172 3481 
z
" transform="scale(0.015625)"/>
       </defs>
       <use xlink:href="#DejaVuSans-30"/>
       <use xlink:href="#DejaVuSans-2e" x="63.623047"/>
       <use xlink:href="#DejaVuSans-38" x="95.410156"/>
      </g>
     </g>
    </g>
    <g id="ytick_6">
     <g id="line2d_61">
      <path d="M 47.38125 83.28 
L 382.18125 83.28 
" clip-path="url(#p9a20edc19f)" style="fill: none; stroke: #b0b0b0; stroke-width: 0.8; stroke-linecap: square"/>
     </g>
     <g id="line2d_62">
      <g>
       <use xlink:href="#mce312f19a7" x="47.38125" y="83.28" style="stroke: #000000; stroke-width: 0.8"/>
      </g>
     </g>
     <g id="text_16">
      <!-- 1.0 -->
      <g transform="translate(24.478125 87.079219)scale(0.1 -0.1)">
       <use xlink:href="#DejaVuSans-31"/>
       <use xlink:href="#DejaVuSans-2e" x="63.623047"/>
       <use xlink:href="#DejaVuSans-30" x="95.410156"/>
      </g>
     </g>
    </g>
    <g id="ytick_7">
     <g id="line2d_63">
      <path d="M 47.38125 54.288 
L 382.18125 54.288 
" clip-path="url(#p9a20edc19f)" style="fill: none; stroke: #b0b0b0; stroke-width: 0.8; stroke-linecap: square"/>
     </g>
     <g id="line2d_64">
      <g>
       <use xlink:href="#mce312f19a7" x="47.38125" y="54.288" style="stroke: #000000; stroke-width: 0.8"/>
      </g>
     </g>
     <g id="text_17">
      <!-- 1.2 -->
      <g transform="translate(24.478125 58.087219)scale(0.1 -0.1)">
       <use xlink:href="#DejaVuSans-31"/>
       <use xlink:href="#DejaVuSans-2e" x="63.623047"/>
       <use xlink:href="#DejaVuSans-32" x="95.410156"/>
      </g>
     </g>
    </g>
    <g id="ytick_8">
     <g id="line2d_65">
      <path d="M 47.38125 25.296 
L 382.18125 25.296 
" clip-path="url(#p9a20edc19f)" style="fill: none; stroke: #b0b0b0; stroke-width: 0.8; stroke-linecap: square"/>
     </g>
     <g id="line2d_66">
      <g>
       <use xlink:href="#mce312f19a7" x="47.38125" y="25.296" style="stroke: #000000; stroke-width: 0.8"/>
      </g>
     </g>
     <g id="text_18">
      <!-- 1.4 -->
      <g transform="translate(24.478125 29.095219)scale(0.1 -0.1)">
       <use xlink:href="#DejaVuSans-31"/>
       <use xlink:href="#DejaVuSans-2e" x="63.623047"/>
       <use xlink:href="#DejaVuSans-34" x="95.410156"/>
      </g>
     </g>
    </g>
    <g id="ytick_9">
     <g id="line2d_67">
      <defs>
       <path id="m9733e8cf0a" d="M 0 0 
L -2 0 
" style="stroke: #000000; stroke-width: 0.6"/>
      </defs>
      <g>
       <use xlink:href="#m9733e8cf0a" x="47.38125" y="220.992" style="stroke: #000000; stroke-width: 0.6"/>
      </g>
     </g>
    </g>
    <g id="ytick_10">
     <g id="line2d_68">
      <g>
       <use xlink:href="#m9733e8cf0a" x="47.38125" y="213.744" style="stroke: #000000; stroke-width: 0.6"/>
      </g>
     </g>
    </g>
    <g id="ytick_11">
     <g id="line2d_69">
      <g>
       <use xlink:href="#m9733e8cf0a" x="47.38125" y="206.496" style="stroke: #000000; stroke-width: 0.6"/>
      </g>
     </g>
    </g>
    <g id="ytick_12">
     <g id="line2d_70">
      <g>
       <use xlink:href="#m9733e8cf0a" x="47.38125" y="192" style="stroke: #000000; stroke-width: 0.6"/>
      </g>
     </g>
    </g>
    <g id="ytick_13">
     <g id="line2d_71">
      <g>
       <use xlink:href="#m9733e8cf0a" x="47.38125" y="184.752" style="stroke: #000000; stroke-width: 0.6"/>
      </g>
     </g>
    </g>
    <g id="ytick_14">
     <g id="line2d_72">
      <g>
       <use xlink:href="#m9733e8cf0a" x="47.38125" y="177.504" style="stroke: #000000; stroke-width: 0.6"/>
      </g>
     </g>
    </g>
    <g id="ytick_15">
     <g id="line2d_73">
      <g>
       <use xlink:href="#m9733e8cf0a" x="47.38125" y="163.008" style="stroke: #000000; stroke-width: 0.6"/>
      </g>
     </g>
    </g>
    <g id="ytick_16">
     <g id="line2d_74">
      <g>
       <use xlink:href="#m9733e8cf0a" x="47.38125" y="155.76" style="stroke: #000000; stroke-width: 0.6"/>
      </g>
     </g>
    </g>
    <g id="ytick_17">
     <g id="line2d_75">
      <g>
       <use xlink:href="#m9733e8cf0a" x="47.38125" y="148.512" style="stroke: #000000; stroke-width: 0.6"/>
      </g>
     </g>
    </g>
    <g id="ytick_18">
     <g id="line2d_76">
      <g>
       <use xlink:href="#m9733e8cf0a" x="47.38125" y="134.016" style="stroke: #000000; stroke-width: 0.6"/>
      </g>
     </g>
    </g>
    <g id="ytick_19">
     <g id="line2d_77">
      <g>
       <use xlink:href="#m9733e8cf0a" x="47.38125" y="126.768" style="stroke: #000000; stroke-width: 0.6"/>
      </g>
     </g>
    </g>
    <g id="ytick_20">
     <g id="line2d_78">
      <g>
       <use xlink:href="#m9733e8cf0a" x="47.38125" y="119.52" style="stroke: #000000; stroke-width: 0.6"/>
      </g>
     </g>
    </g>
    <g id="ytick_21">
     <g id="line2d_79">
      <g>
       <use xlink:href="#m9733e8cf0a" x="47.38125" y="105.024" style="stroke: #000000; stroke-width: 0.6"/>
      </g>
     </g>
    </g>
    <g id="ytick_22">
     <g id="line2d_80">
      <g>
       <use xlink:href="#m9733e8cf0a" x="47.38125" y="97.776" style="stroke: #000000; stroke-width: 0.6"/>
      </g>
     </g>
    </g>
    <g id="ytick_23">
     <g id="line2d_81">
      <g>
       <use xlink:href="#m9733e8cf0a" x="47.38125" y="90.528" style="stroke: #000000; stroke-width: 0.6"/>
      </g>
     </g>
    </g>
    <g id="ytick_24">
     <g id="line2d_82">
      <g>
       <use xlink:href="#m9733e8cf0a" x="47.38125" y="76.032" style="stroke: #000000; stroke-width: 0.6"/>
      </g>
     </g>
    </g>
    <g id="ytick_25">
     <g id="line2d_83">
      <g>
       <use xlink:href="#m9733e8cf0a" x="47.38125" y="68.784" style="stroke: #000000; stroke-width: 0.6"/>
      </g>
     </g>
    </g>
    <g id="ytick_26">
     <g id="line2d_84">
      <g>
       <use xlink:href="#m9733e8cf0a" x="47.38125" y="61.536" style="stroke: #000000; stroke-width: 0.6"/>
      </g>
     </g>
    </g>
    <g id="ytick_27">
     <g id="line2d_85">
      <g>
       <use xlink:href="#m9733e8cf0a" x="47.38125" y="47.04" style="stroke: #000000; stroke-width: 0.6"/>
      </g>
     </g>
    </g>
    <g id="ytick_28">
     <g id="line2d_86">
      <g>
       <use xlink:href="#m9733e8cf0a" x="47.38125" y="39.792" style="stroke: #000000; stroke-width: 0.6"/>
      </g>
     </g>
    </g>
    <g id="ytick_29">
     <g id="line2d_87">
      <g>
       <use xlink:href="#m9733e8cf0a" x="47.38125" y="32.544" style="stroke: #000000; stroke-width: 0.6"/>
      </g>
     </g>
    </g>
    <g id="ytick_30">
     <g id="line2d_88">
      <g>
       <use xlink:href="#m9733e8cf0a" x="47.38125" y="18.048" style="stroke: #000000; stroke-width: 0.6"/>
      </g>
     </g>
    </g>
    <g id="text_19">
     <!-- PDF -->
     <g transform="translate(18.398438 129.260625)rotate(-90)scale(0.1 -0.1)">
      <defs>
       <path id="DejaVuSans-50" d="M 1259 4147 
L 1259 2394 
L 2053 2394 
Q 2494 2394 2734 2622 
Q 2975 2850 2975 3272 
Q 2975 3691 2734 3919 
Q 2494 4147 2053 4147 
L 1259 4147 
z
M 628 4666 
L 2053 4666 
Q 2838 4666 3239 4311 
Q 3641 3956 3641 3272 
Q 3641 2581 3239 2228 
Q 2838 1875 2053 1875 
L 1259 1875 
L 1259 0 
L 628 0 
L 628 4666 
z
" transform="scale(0.015625)"/>
       <path id="DejaVuSans-44" d="M 1259 4147 
L 1259 519 
L 2022 519 
Q 2988 519 3436 956 
Q 3884 1394 3884 2338 
Q 3884 3275 3436 3711 
Q 2988 4147 2022 4147 
L 1259 4147 
z
M 628 4666 
L 1925 4666 
Q 3281 4666 3915 4102 
Q 4550 3538 4550 2338 
Q 4550 1131 3912 565 
Q 3275 0 1925 0 
L 628 0 
L 628 4666 
z
" transform="scale(0.015625)"/>
       <path id="DejaVuSans-46" d="M 628 4666 
L 3309 4666 
L 3309 4134 
L 1259 4134 
L 1259 2759 
L 3109 2759 
L 3109 2228 
L 1259 2228 
L 1259 0 
L 628 0 
L 628 4666 
z
" transform="scale(0.015625)"/>
      </defs>
      <use xlink:href="#DejaVuSans-50"/>
      <use xlink:href="#DejaVuSans-44" x="60.302734"/>
      <use xlink:href="#DejaVuSans-46" x="137.304688"/>
     </g>
    </g>
   </g>
   <g id="line2d_89">
    <path d="M 47.38125 225.946071 
L 48.721691 225.096509 
L 50.062131 224.008609 
L 51.402572 222.643025 
L 52.743012 220.962306 
L 54.083453 218.933492 
L 55.423893 216.530827 
L 56.764334 213.738322 
L 58.439885 209.694546 
L 60.115435 205.058011 
L 62.126096 198.792741 
L 64.471867 190.720637 
L 68.828299 174.701967 
L 72.1794 162.767795 
L 74.525171 155.217528 
L 76.535832 149.493955 
L 78.211383 145.328495 
L 79.886934 141.743377 
L 81.562484 138.743227 
L 82.902925 136.754425 
L 84.243366 135.114786 
L 85.583806 133.80361 
L 86.924247 132.796658 
L 88.264687 132.067685 
L 89.605128 131.589862 
L 90.945568 131.337001 
L 92.286009 131.284511 
L 93.96156 131.466878 
L 95.63711 131.889648 
L 97.312661 132.521082 
L 99.323322 133.51724 
L 101.669093 134.959452 
L 104.349974 136.908105 
L 107.701075 139.669539 
L 113.397948 144.738404 
L 119.765041 150.295635 
L 125.797023 155.237538 
L 133.169446 160.981994 
L 139.871649 165.934392 
L 145.903632 170.111968 
L 152.270724 174.238479 
L 159.308037 178.541715 
L 165.00491 181.776051 
L 170.031562 184.372454 
L 175.393324 186.881702 
L 181.090196 189.303325 
L 186.451959 191.355557 
L 192.819051 193.532652 
L 209.909669 199.009601 
L 214.2661 200.117456 
L 218.622532 200.990063 
L 232.026938 203.483748 
L 239.734471 205.336499 
L 247.106894 207.026765 
L 252.803767 208.096558 
L 259.505969 209.114417 
L 267.883723 210.148476 
L 279.277468 211.339885 
L 285.64456 211.766972 
L 295.697865 212.409736 
L 301.729847 213.069988 
L 318.485354 215.039173 
L 328.203548 215.832895 
L 367.076325 218.933069 
L 370.762536 219.559463 
L 373.778528 220.293901 
L 376.794519 221.274913 
L 380.14562 222.625217 
L 382.156281 223.511842 
L 382.156281 223.511842 
" clip-path="url(#p9a20edc19f)" style="fill: none; stroke: #1f77b4; stroke-width: 2; stroke-linecap: square"/>
   </g>
   <g id="line2d_90">
    <path d="M 47.38125 228.238095 
L 58.105005 228.12447 
L 61.791295 227.877134 
L 64.472234 227.470727 
L 66.482938 226.945829 
L 68.158524 226.298101 
L 69.834111 225.39697 
L 71.17458 224.449456 
L 72.51505 223.26174 
L 73.855519 221.79759 
L 75.195988 220.022137 
L 76.536458 217.903799 
L 77.876927 215.416304 
L 79.552514 211.759695 
L 81.2281 207.480293 
L 82.903687 202.586884 
L 84.914391 195.957336 
L 87.260212 187.327098 
L 90.276268 175.224309 
L 97.983967 143.692742 
L 100.329788 135.148779 
L 102.340492 128.540888 
L 104.351196 122.695926 
L 106.026783 118.456908 
L 107.702369 114.818909 
L 109.042839 112.349878 
L 110.383308 110.274496 
L 111.723777 108.589051 
L 113.064247 107.285279 
L 114.404716 106.350494 
L 115.410068 105.881549 
L 116.41542 105.602198 
L 117.420772 105.502822 
L 118.761241 105.631981 
L 120.101711 106.035493 
L 121.44218 106.685286 
L 123.117766 107.800772 
L 124.793353 109.203397 
L 126.804057 111.196552 
L 129.149878 113.856743 
L 132.165934 117.660934 
L 136.187342 123.149529 
L 151.267622 144.12925 
L 157.634851 152.46083 
L 162.326494 158.261294 
L 166.347902 162.89999 
L 170.36931 167.190235 
L 174.390718 171.136209 
L 178.412126 174.751262 
L 182.098416 177.778718 
L 186.119824 180.779559 
L 190.47635 183.725806 
L 196.508462 187.491087 
L 207.902451 194.317804 
L 212.594093 196.858531 
L 217.285736 199.126458 
L 222.647613 201.455925 
L 228.009491 203.561058 
L 232.701133 205.1739 
L 237.392776 206.540175 
L 243.424888 208.031261 
L 260.850989 212.213754 
L 267.218218 213.680829 
L 271.909861 214.540764 
L 277.941973 215.394863 
L 294.362722 217.406814 
L 316.480466 219.637987 
L 345.300556 221.964415 
L 365.742713 223.134222 
L 371.10459 223.632513 
L 375.125998 224.233923 
L 379.147406 225.065019 
L 382.163462 225.779524 
L 382.163462 225.779524 
" clip-path="url(#p9a20edc19f)" style="fill: none; stroke: #ff7f0e; stroke-width: 2; stroke-linecap: square"/>
   </g>
   <g id="line2d_91">
    <path d="M 47.38125 228.239996 
L 69.162859 228.139035 
L 72.848978 227.906007 
L 75.194689 227.572562 
L 77.2053 227.080558 
L 78.880808 226.454082 
L 80.556316 225.556985 
L 81.896723 224.589088 
L 83.23713 223.347323 
L 84.577536 221.780519 
L 85.917943 219.835839 
L 87.25835 217.461024 
L 88.598757 214.607056 
L 89.939163 211.231126 
L 91.27957 207.299709 
L 92.955078 201.57324 
L 94.630587 194.938257 
L 96.306095 187.428198 
L 98.316705 177.37368 
L 100.662417 164.48728 
L 104.683637 140.855273 
L 108.369756 119.575369 
L 110.715467 107.225403 
L 112.726078 97.776745 
L 114.401586 90.855453 
L 116.077094 84.8803 
L 117.417501 80.809852 
L 118.757908 77.378714 
L 120.098315 74.583109 
L 121.10362 72.895842 
L 122.108925 71.550222 
L 123.11423 70.535518 
L 124.119535 69.839194 
L 125.12484 69.447253 
L 126.130145 69.344568 
L 127.13545 69.515194 
L 128.140755 69.942662 
L 129.14606 70.610236 
L 130.486467 71.844863 
L 131.826873 73.437276 
L 133.16728 75.349255 
L 134.842788 78.132688 
L 136.853399 81.960011 
L 139.19911 86.957323 
L 142.215025 93.97523 
L 146.906449 105.558325 
L 154.278686 123.730376 
L 158.635008 133.911199 
L 162.321126 142.02282 
L 165.672143 148.900279 
L 169.02316 155.256863 
L 172.039075 160.530617 
L 175.05499 165.396548 
L 178.070905 169.873132 
L 181.08682 173.983812 
L 184.437837 178.167467 
L 188.123956 182.379261 
L 191.810074 186.247416 
L 195.496193 189.782394 
L 198.847209 192.685013 
L 202.198226 195.286962 
L 205.884345 197.841394 
L 209.905565 200.340795 
L 214.261887 202.790943 
L 218.95331 205.183994 
L 224.314937 207.666963 
L 230.011666 210.064078 
L 235.038191 211.95497 
L 239.729614 213.495743 
L 244.756139 214.904126 
L 250.117766 216.162722 
L 256.8198 217.482732 
L 270.89407 219.965051 
L 278.601409 221.120782 
L 285.973646 221.992814 
L 294.351188 222.755016 
L 303.398933 223.348589 
L 344.951542 225.499455 
L 356.680101 225.909993 
L 369.749066 226.331894 
L 376.786201 226.811271 
L 382.147828 227.297773 
L 382.147828 227.297773 
" clip-path="url(#p9a20edc19f)" style="fill: none; stroke: #2ca02c; stroke-width: 2; stroke-linecap: square"/>
   </g>
   <g id="line2d_92">
    <path d="M 47.38125 228.182756 
L 52.408257 227.992705 
L 55.759595 227.66516 
L 58.440665 227.189539 
L 60.786601 226.546684 
L 62.797404 225.779627 
L 64.808207 224.775878 
L 66.819009 223.506916 
L 68.829812 221.954515 
L 70.840615 220.11322 
L 72.851417 217.991142 
L 75.197354 215.188737 
L 77.878424 211.618063 
L 81.229762 206.743471 
L 87.26217 197.450305 
L 91.954043 190.412084 
L 95.305381 185.784118 
L 98.321585 182.008874 
L 101.002655 178.988486 
L 103.683725 176.277647 
L 106.364796 173.857088 
L 109.045866 171.708765 
L 111.726936 169.826155 
L 114.408006 168.215825 
L 117.089077 166.889788 
L 119.435013 165.967521 
L 121.78095 165.26198 
L 124.46202 164.70085 
L 127.14309 164.367107 
L 130.159294 164.210369 
L 133.845766 164.245026 
L 138.872772 164.529437 
L 144.570047 165.063817 
L 149.26192 165.720734 
L 153.953793 166.612798 
L 159.651067 167.932841 
L 165.683475 169.547874 
L 170.040214 170.92839 
L 174.732087 172.65075 
L 184.115833 176.172518 
L 188.807706 177.637913 
L 210.926535 183.96036 
L 217.964345 185.665733 
L 224.331887 186.996654 
L 230.029161 187.945512 
L 244.439914 190.175756 
L 250.472322 191.446119 
L 260.191201 193.771137 
L 279.628961 198.412417 
L 283.9857 199.102405 
L 290.688375 199.880948 
L 298.731586 200.89327 
L 311.801804 202.822425 
L 319.509881 203.908939 
L 324.872021 204.433399 
L 343.974647 206.037966 
L 352.688125 207.234936 
L 362.742139 208.781875 
L 366.093476 209.543324 
L 368.439413 210.280878 
L 370.785349 211.254579 
L 372.796152 212.310621 
L 375.142088 213.813681 
L 377.488025 215.582104 
L 380.839363 218.412249 
L 382.179898 219.576882 
L 382.179898 219.576882 
" clip-path="url(#p9a20edc19f)" style="fill: none; stroke: #d62728; stroke-width: 2; stroke-linecap: square"/>
   </g>
   <g id="line2d_93">
    <path d="M 47.38125 228.24 
L 89.270418 228.137768 
L 94.297118 227.904094 
L 97.983365 227.524235 
L 100.999385 226.995574 
L 103.680292 226.29705 
L 106.026085 225.464807 
L 108.371879 224.390363 
L 110.717672 223.044934 
L 113.063465 221.408079 
L 115.409259 219.470013 
L 117.755052 217.232854 
L 120.435959 214.32826 
L 123.116866 211.088961 
L 126.132886 207.108325 
L 130.154246 201.389454 
L 136.521399 191.852852 
L 142.888553 182.424505 
L 146.909913 176.872415 
L 150.261047 172.636738 
L 153.277067 169.19072 
L 155.957973 166.440464 
L 158.63888 163.988952 
L 161.319787 161.829453 
L 164.000694 159.945084 
L 166.6816 158.309486 
L 169.697621 156.728384 
L 172.713641 155.387816 
L 175.729661 154.27761 
L 178.745681 153.415857 
L 181.426588 152.884307 
L 184.107494 152.59218 
L 186.788401 152.543521 
L 189.469308 152.727126 
L 192.485328 153.18313 
L 195.501348 153.863872 
L 199.187595 154.932782 
L 204.884522 156.863709 
L 211.251675 158.964567 
L 223.315756 162.743539 
L 227.337116 164.382256 
L 232.363816 166.701256 
L 244.76301 172.497814 
L 254.146183 176.563973 
L 265.87515 181.430014 
L 273.91787 184.496945 
L 298.381145 193.439224 
L 302.067391 194.534705 
L 305.753638 195.39123 
L 311.785678 196.502567 
L 317.482605 197.6426 
L 322.174192 198.816742 
L 330.216912 201.126093 
L 336.919179 202.930763 
L 342.951219 204.310219 
L 348.313033 205.304917 
L 353.674846 206.059501 
L 361.382453 207.114533 
L 364.733587 207.819038 
L 367.414493 208.609498 
L 369.760287 209.531199 
L 372.10608 210.720114 
L 374.11676 211.978031 
L 376.462554 213.725039 
L 379.14346 216.029409 
L 382.159481 218.826031 
L 382.159481 218.826031 
" clip-path="url(#p9a20edc19f)" style="fill: none; stroke: #9467bd; stroke-width: 2; stroke-linecap: square"/>
   </g>
   <g id="line2d_94">
    <path d="M 47.38125 228.24 
L 113.73664 228.13379 
L 118.763564 227.891508 
L 122.449975 227.492522 
L 125.466129 226.927442 
L 127.812026 226.277244 
L 130.157924 225.389849 
L 132.168693 224.402209 
L 134.179463 223.172269 
L 136.190232 221.671842 
L 138.201002 219.877692 
L 140.211771 217.7737 
L 142.22254 215.352684 
L 144.568438 212.131728 
L 146.914336 208.504602 
L 149.595362 203.909135 
L 152.611516 198.250766 
L 156.297926 190.79729 
L 161.995106 178.658087 
L 167.02203 168.098069 
L 170.373312 161.570946 
L 173.054338 156.809232 
L 175.735364 152.523438 
L 178.081261 149.179096 
L 180.427159 146.205225 
L 182.773057 143.583323 
L 185.118954 141.294985 
L 187.464852 139.329756 
L 189.475621 137.90249 
L 191.486391 136.717966 
L 193.49716 135.782523 
L 195.50793 135.099766 
L 197.518699 134.667317 
L 199.529468 134.475175 
L 201.540238 134.506046 
L 203.886136 134.793609 
L 206.232033 135.314239 
L 208.913059 136.145996 
L 211.929213 137.327121 
L 215.280496 138.885282 
L 218.966906 140.841896 
L 223.323573 143.41797 
L 228.350497 146.655018 
L 234.717933 151.01869 
L 240.415113 155.17545 
L 246.447421 159.88719 
L 254.825627 166.435147 
L 260.522807 170.582953 
L 265.884859 174.225716 
L 270.911782 177.37201 
L 277.614347 181.267841 
L 286.662809 186.284791 
L 293.030246 189.55892 
L 300.067939 192.931294 
L 305.429991 195.274882 
L 311.127171 197.50755 
L 321.181018 201.146292 
L 327.548454 203.267186 
L 332.575378 204.700013 
L 337.602301 205.886002 
L 343.299481 206.991492 
L 357.374867 209.597484 
L 362.401791 210.823485 
L 366.088201 211.936281 
L 369.104355 213.06291 
L 371.785381 214.291043 
L 374.466407 215.77124 
L 377.482561 217.72903 
L 382.174356 221.123339 
L 382.174356 221.123339 
" clip-path="url(#p9a20edc19f)" style="fill: none; stroke: #8c564b; stroke-width: 2; stroke-linecap: square"/>
   </g>
   <g id="patch_3">
    <path d="M 47.38125 228.24 
L 47.38125 10.8 
" style="fill: none; stroke: #000000; stroke-width: 0.8; stroke-linejoin: miter; stroke-linecap: square"/>
   </g>
   <g id="patch_4">
    <path d="M 382.18125 228.24 
L 382.18125 10.8 
" style="fill: none; stroke: #000000; stroke-width: 0.8; stroke-linejoin: miter; stroke-linecap: square"/>
   </g>
   <g id="patch_5">
    <path d="M 47.38125 228.24 
L 382.18125 228.24 
" style="fill: none; stroke: #000000; stroke-width: 0.8; stroke-linejoin: miter; stroke-linecap: square"/>
   </g>
   <g id="patch_6">
    <path d="M 47.38125 10.8 
L 382.18125 10.8 
" style="fill: none; stroke: #000000; stroke-width: 0.8; stroke-linejoin: miter; stroke-linecap: square"/>
   </g>
   <g id="legend_1">
    <g id="patch_7">
     <path d="M 253.48125 107.6 
L 375.18125 107.6 
Q 377.18125 107.6 377.18125 105.6 
L 377.18125 17.8 
Q 377.18125 15.8 375.18125 15.8 
L 253.48125 15.8 
Q 251.48125 15.8 251.48125 17.8 
L 251.48125 105.6 
Q 251.48125 107.6 253.48125 107.6 
z
" style="fill: #ffffff; opacity: 0.8; stroke: #cccccc; stroke-linejoin: miter"/>
    </g>
    <g id="line2d_95">
     <path d="M 255.48125 24 
L 265.48125 24 
L 275.48125 24 
" style="fill: none; stroke: #1f77b4; stroke-width: 2; stroke-linecap: square"/>
    </g>
    <g id="text_20">
     <!-- $\alpha=1;$ $\beta=1$, $\gamma=0$ -->
     <g transform="translate(283.48125 27.5)scale(0.1 -0.1)">
      <defs>
       <path id="DejaVuSans-Oblique-3b1" d="M 2619 1628 
L 2622 2350 
Q 2625 3088 2069 3091 
Q 1653 3094 1394 2747 
Q 1069 2319 959 1747 
Q 825 1059 994 731 
Q 1169 397 1547 397 
Q 1966 397 2319 1063 
L 2619 1628 
z
M 2166 3578 
Q 3141 3594 3128 2584 
Q 3128 2584 3616 3500 
L 4128 3500 
L 3119 1603 
L 3109 919 
Q 3109 766 3194 638 
Q 3291 488 3391 488 
L 3669 488 
L 3575 0 
L 3228 0 
Q 2934 0 2722 263 
Q 2622 394 2619 669 
Q 2416 334 2066 50 
Q 1900 -81 1453 -78 
Q 722 -72 456 397 
Q 184 884 353 1747 
Q 534 2675 1009 3097 
Q 1544 3569 2166 3578 
z
" transform="scale(0.015625)"/>
       <path id="DejaVuSans-3d" d="M 678 2906 
L 4684 2906 
L 4684 2381 
L 678 2381 
L 678 2906 
z
M 678 1631 
L 4684 1631 
L 4684 1100 
L 678 1100 
L 678 1631 
z
" transform="scale(0.015625)"/>
       <path id="DejaVuSans-3b" d="M 750 3309 
L 1409 3309 
L 1409 2516 
L 750 2516 
L 750 3309 
z
M 750 794 
L 1409 794 
L 1409 256 
L 897 -744 
L 494 -744 
L 750 256 
L 750 794 
z
" transform="scale(0.015625)"/>
       <path id="DejaVuSans-20" transform="scale(0.015625)"/>
       <path id="DejaVuSans-Oblique-3b2" d="M 872 216 
L 572 -1331 
L -6 -1331 
L 928 3478 
Q 1206 4903 2538 4903 
Q 3888 4903 3659 3700 
Q 3503 2844 2894 2531 
Q 3713 2250 3553 1416 
Q 3272 -69 1759 -66 
Q 1097 -63 872 216 
z
M 1019 966 
Q 1259 422 1875 425 
Q 2775 425 2966 1406 
Q 3138 2288 1675 2219 
L 1778 2750 
Q 2909 2731 3106 3750 
Q 3241 4438 2509 4434 
Q 1691 4434 1503 3459 
L 1019 966 
z
" transform="scale(0.015625)"/>
       <path id="DejaVuSans-2c" d="M 750 794 
L 1409 794 
L 1409 256 
L 897 -744 
L 494 -744 
L 750 256 
L 750 794 
z
" transform="scale(0.015625)"/>
       <path id="DejaVuSans-Oblique-3b3" d="M 1491 2950 
L 1838 788 
L 3456 3500 
L 4066 3500 
L 1972 0 
L 1713 -1331 
L 1138 -1331 
L 1397 0 
L 988 2613 
Q 925 3006 628 3006 
L 475 3006 
L 569 3500 
L 788 3500 
Q 1403 3500 1491 2950 
z
" transform="scale(0.015625)"/>
      </defs>
      <use xlink:href="#DejaVuSans-Oblique-3b1" transform="translate(0 0.390625)"/>
      <use xlink:href="#DejaVuSans-3d" transform="translate(85.400391 0.390625)"/>
      <use xlink:href="#DejaVuSans-31" transform="translate(188.671875 0.390625)"/>
      <use xlink:href="#DejaVuSans-3b" transform="translate(252.294922 0.390625)"/>
      <use xlink:href="#DejaVuSans-20" transform="translate(305.46875 0.390625)"/>
      <use xlink:href="#DejaVuSans-Oblique-3b2" transform="translate(337.255859 0.390625)"/>
      <use xlink:href="#DejaVuSans-3d" transform="translate(420.556641 0.390625)"/>
      <use xlink:href="#DejaVuSans-31" transform="translate(523.828125 0.390625)"/>
      <use xlink:href="#DejaVuSans-2c" transform="translate(587.451172 0.390625)"/>
      <use xlink:href="#DejaVuSans-20" transform="translate(619.238281 0.390625)"/>
      <use xlink:href="#DejaVuSans-Oblique-3b3" transform="translate(651.025391 0.390625)"/>
      <use xlink:href="#DejaVuSans-3d" transform="translate(729.6875 0.390625)"/>
      <use xlink:href="#DejaVuSans-30" transform="translate(832.958984 0.390625)"/>
     </g>
    </g>
    <g id="line2d_96">
     <path d="M 255.48125 38.8 
L 265.48125 38.8 
L 275.48125 38.8 
" style="fill: none; stroke: #ff7f0e; stroke-width: 2; stroke-linecap: square"/>
    </g>
    <g id="text_21">
     <!-- $\alpha=2;$ $\beta=1$, $\gamma=0$ -->
     <g transform="translate(283.48125 42.3)scale(0.1 -0.1)">
      <use xlink:href="#DejaVuSans-Oblique-3b1" transform="translate(0 0.390625)"/>
      <use xlink:href="#DejaVuSans-3d" transform="translate(85.400391 0.390625)"/>
      <use xlink:href="#DejaVuSans-32" transform="translate(188.671875 0.390625)"/>
      <use xlink:href="#DejaVuSans-3b" transform="translate(252.294922 0.390625)"/>
      <use xlink:href="#DejaVuSans-20" transform="translate(305.46875 0.390625)"/>
      <use xlink:href="#DejaVuSans-Oblique-3b2" transform="translate(337.255859 0.390625)"/>
      <use xlink:href="#DejaVuSans-3d" transform="translate(420.556641 0.390625)"/>
      <use xlink:href="#DejaVuSans-31" transform="translate(523.828125 0.390625)"/>
      <use xlink:href="#DejaVuSans-2c" transform="translate(587.451172 0.390625)"/>
      <use xlink:href="#DejaVuSans-20" transform="translate(619.238281 0.390625)"/>
      <use xlink:href="#DejaVuSans-Oblique-3b3" transform="translate(651.025391 0.390625)"/>
      <use xlink:href="#DejaVuSans-3d" transform="translate(729.6875 0.390625)"/>
      <use xlink:href="#DejaVuSans-30" transform="translate(832.958984 0.390625)"/>
     </g>
    </g>
    <g id="line2d_97">
     <path d="M 255.48125 53.6 
L 265.48125 53.6 
L 275.48125 53.6 
" style="fill: none; stroke: #2ca02c; stroke-width: 2; stroke-linecap: square"/>
    </g>
    <g id="text_22">
     <!-- $\alpha=3;$ $\beta=1$, $\gamma=0$ -->
     <g transform="translate(283.48125 57.1)scale(0.1 -0.1)">
      <use xlink:href="#DejaVuSans-Oblique-3b1" transform="translate(0 0.390625)"/>
      <use xlink:href="#DejaVuSans-3d" transform="translate(85.400391 0.390625)"/>
      <use xlink:href="#DejaVuSans-33" transform="translate(188.671875 0.390625)"/>
      <use xlink:href="#DejaVuSans-3b" transform="translate(252.294922 0.390625)"/>
      <use xlink:href="#DejaVuSans-20" transform="translate(305.46875 0.390625)"/>
      <use xlink:href="#DejaVuSans-Oblique-3b2" transform="translate(337.255859 0.390625)"/>
      <use xlink:href="#DejaVuSans-3d" transform="translate(420.556641 0.390625)"/>
      <use xlink:href="#DejaVuSans-31" transform="translate(523.828125 0.390625)"/>
      <use xlink:href="#DejaVuSans-2c" transform="translate(587.451172 0.390625)"/>
      <use xlink:href="#DejaVuSans-20" transform="translate(619.238281 0.390625)"/>
      <use xlink:href="#DejaVuSans-Oblique-3b3" transform="translate(651.025391 0.390625)"/>
      <use xlink:href="#DejaVuSans-3d" transform="translate(729.6875 0.390625)"/>
      <use xlink:href="#DejaVuSans-30" transform="translate(832.958984 0.390625)"/>
     </g>
    </g>
    <g id="line2d_98">
     <path d="M 255.48125 68.4 
L 265.48125 68.4 
L 275.48125 68.4 
" style="fill: none; stroke: #d62728; stroke-width: 2; stroke-linecap: square"/>
    </g>
    <g id="text_23">
     <!-- $\alpha=1;$ $\beta=2$, $\gamma=0$ -->
     <g transform="translate(283.48125 71.9)scale(0.1 -0.1)">
      <use xlink:href="#DejaVuSans-Oblique-3b1" transform="translate(0 0.390625)"/>
      <use xlink:href="#DejaVuSans-3d" transform="translate(85.400391 0.390625)"/>
      <use xlink:href="#DejaVuSans-31" transform="translate(188.671875 0.390625)"/>
      <use xlink:href="#DejaVuSans-3b" transform="translate(252.294922 0.390625)"/>
      <use xlink:href="#DejaVuSans-20" transform="translate(305.46875 0.390625)"/>
      <use xlink:href="#DejaVuSans-Oblique-3b2" transform="translate(337.255859 0.390625)"/>
      <use xlink:href="#DejaVuSans-3d" transform="translate(420.556641 0.390625)"/>
      <use xlink:href="#DejaVuSans-32" transform="translate(523.828125 0.390625)"/>
      <use xlink:href="#DejaVuSans-2c" transform="translate(587.451172 0.390625)"/>
      <use xlink:href="#DejaVuSans-20" transform="translate(619.238281 0.390625)"/>
      <use xlink:href="#DejaVuSans-Oblique-3b3" transform="translate(651.025391 0.390625)"/>
      <use xlink:href="#DejaVuSans-3d" transform="translate(729.6875 0.390625)"/>
      <use xlink:href="#DejaVuSans-30" transform="translate(832.958984 0.390625)"/>
     </g>
    </g>
    <g id="line2d_99">
     <path d="M 255.48125 83.2 
L 265.48125 83.2 
L 275.48125 83.2 
" style="fill: none; stroke: #9467bd; stroke-width: 2; stroke-linecap: square"/>
    </g>
    <g id="text_24">
     <!-- $\alpha=2;$ $\beta=2$, $\gamma=0$ -->
     <g transform="translate(283.48125 86.7)scale(0.1 -0.1)">
      <use xlink:href="#DejaVuSans-Oblique-3b1" transform="translate(0 0.390625)"/>
      <use xlink:href="#DejaVuSans-3d" transform="translate(85.400391 0.390625)"/>
      <use xlink:href="#DejaVuSans-32" transform="translate(188.671875 0.390625)"/>
      <use xlink:href="#DejaVuSans-3b" transform="translate(252.294922 0.390625)"/>
      <use xlink:href="#DejaVuSans-20" transform="translate(305.46875 0.390625)"/>
      <use xlink:href="#DejaVuSans-Oblique-3b2" transform="translate(337.255859 0.390625)"/>
      <use xlink:href="#DejaVuSans-3d" transform="translate(420.556641 0.390625)"/>
      <use xlink:href="#DejaVuSans-32" transform="translate(523.828125 0.390625)"/>
      <use xlink:href="#DejaVuSans-2c" transform="translate(587.451172 0.390625)"/>
      <use xlink:href="#DejaVuSans-20" transform="translate(619.238281 0.390625)"/>
      <use xlink:href="#DejaVuSans-Oblique-3b3" transform="translate(651.025391 0.390625)"/>
      <use xlink:href="#DejaVuSans-3d" transform="translate(729.6875 0.390625)"/>
      <use xlink:href="#DejaVuSans-30" transform="translate(832.958984 0.390625)"/>
     </g>
    </g>
    <g id="line2d_100">
     <path d="M 255.48125 98 
L 265.48125 98 
L 275.48125 98 
" style="fill: none; stroke: #8c564b; stroke-width: 2; stroke-linecap: square"/>
    </g>
    <g id="text_25">
     <!-- $\alpha=3;$ $\beta=2$, $\gamma=0$ -->
     <g transform="translate(283.48125 101.5)scale(0.1 -0.1)">
      <use xlink:href="#DejaVuSans-Oblique-3b1" transform="translate(0 0.390625)"/>
      <use xlink:href="#DejaVuSans-3d" transform="translate(85.400391 0.390625)"/>
      <use xlink:href="#DejaVuSans-33" transform="translate(188.671875 0.390625)"/>
      <use xlink:href="#DejaVuSans-3b" transform="translate(252.294922 0.390625)"/>
      <use xlink:href="#DejaVuSans-20" transform="translate(305.46875 0.390625)"/>
      <use xlink:href="#DejaVuSans-Oblique-3b2" transform="translate(337.255859 0.390625)"/>
      <use xlink:href="#DejaVuSans-3d" transform="translate(420.556641 0.390625)"/>
      <use xlink:href="#DejaVuSans-32" transform="translate(523.828125 0.390625)"/>
      <use xlink:href="#DejaVuSans-2c" transform="translate(587.451172 0.390625)"/>
      <use xlink:href="#DejaVuSans-20" transform="translate(619.238281 0.390625)"/>
      <use xlink:href="#DejaVuSans-Oblique-3b3" transform="translate(651.025391 0.390625)"/>
      <use xlink:href="#DejaVuSans-3d" transform="translate(729.6875 0.390625)"/>
      <use xlink:href="#DejaVuSans-30" transform="translate(832.958984 0.390625)"/>
     </g>
    </g>
   </g>
  </g>
 </g>
 <defs>
  <clipPath id="p9a20edc19f">
   <rect x="47.38125" y="10.8" width="334.8" height="217.44"/>
  </clipPath>
 </defs>
</svg>
